<svg xmlns="http://www.w3.org/2000/svg" viewBox="0 0 60 60" width="60" height="60">
  <!-- Female Driver Avatar 1 -->
  <defs>
    <linearGradient id="f1SkinGradient" x1="0%" y1="0%" x2="0%" y2="100%">
      <stop offset="0%" style="stop-color:#f5d0c5"/>
      <stop offset="100%" style="stop-color:#e8b4a0"/>
    </linearGradient>
    <linearGradient id="f1HairGradient" x1="0%" y1="0%" x2="0%" y2="100%">
      <stop offset="0%" style="stop-color:#4a3728"/>
      <stop offset="100%" style="stop-color:#2a1f18"/>
    </linearGradient>
    <clipPath id="f1Circle">
      <circle cx="30" cy="30" r="28"/>
    </clipPath>
  </defs>
  
  <!-- Background Circle -->
  <circle cx="30" cy="30" r="29" fill="#3b82f6" stroke="#2563eb" stroke-width="2"/>
  
  <g clip-path="url(#f1Circle)">
    <!-- Neck -->
    <rect x="22" y="42" width="16" height="12" fill="url(#f1SkinGradient)"/>
    
    <!-- Professional Blouse/Uniform -->
    <path d="M10 58 L18 46 L30 44 L42 46 L50 58 L50 65 L10 65 Z" fill="#1e40af"/>
    <path d="M26 44 L30 48 L34 44" fill="none" stroke="#1e3a8a" stroke-width="1.5"/>
    
    <!-- Face -->
    <ellipse cx="30" cy="30" rx="14" ry="16" fill="url(#f1SkinGradient)"/>
    
    <!-- Hair - Professional style -->
    <path d="M16 32 L16 22 Q16 10 30 10 Q44 10 44 22 L44 32 Q44 28 40 26 L40 18 Q40 14 30 14 Q20 14 20 18 L20 26 Q16 28 16 32 Z" fill="url(#f1HairGradient)"/>
    <!-- Side hair -->
    <path d="M16 26 Q14 32 16 38" fill="none" stroke="#3d2a1c" stroke-width="3" stroke-linecap="round"/>
    <path d="M44 26 Q46 32 44 38" fill="none" stroke="#3d2a1c" stroke-width="3" stroke-linecap="round"/>
    
    <!-- Eyes -->
    <ellipse cx="24" cy="28" rx="3" ry="2.5" fill="white"/>
    <ellipse cx="36" cy="28" rx="3" ry="2.5" fill="white"/>
    <circle cx="24.5" cy="28.5" r="1.5" fill="#2d3748"/>
    <circle cx="36.5" cy="28.5" r="1.5" fill="#2d3748"/>
    <circle cx="25" cy="28" r="0.5" fill="white"/>
    <circle cx="37" cy="28" r="0.5" fill="white"/>
    
    <!-- Eyebrows -->
    <path d="M21 24 Q24 23 27 24" fill="none" stroke="#4a3728" stroke-width="1" stroke-linecap="round"/>
    <path d="M33 24 Q36 23 39 24" fill="none" stroke="#4a3728" stroke-width="1" stroke-linecap="round"/>
    
    <!-- Nose -->
    <path d="M30 30 L29 35 L31 35" fill="none" stroke="#d4a090" stroke-width="1" stroke-linecap="round"/>
    
    <!-- Smile with lipstick -->
    <path d="M25 38 Q30 42 35 38" fill="none" stroke="#c44569" stroke-width="2" stroke-linecap="round"/>
    
    <!-- Earrings -->
    <circle cx="15" cy="32" r="2" fill="#ffd700"/>
    <circle cx="45" cy="32" r="2" fill="#ffd700"/>
  </g>
</svg>